HIERARCHY
ROOT Hips
{
	OFFSET 0.000000 0.000000 0.000000
	CHANNELS 6 Xposition Yposition Zposition Xrotation Yrotation Zrotation
	JOINT LeftUpLeg_virtual
	{
		OFFSET 0.000000 0.000000 0.000000
		CHANNELS 3 Xrotation Yrotation Zrotation
		JOINT LeftUpLeg
		{
			OFFSET 13.026900 -6.336304 -1.092800
			CHANNELS 3 Xrotation Yrotation Zrotation
			JOINT LeftLeg
			{
				OFFSET 0.524474 -46.096886 9.782700
				CHANNELS 3 Xrotation Yrotation Zrotation
				JOINT LeftFoot
				{
					OFFSET -0.524474 -53.427422 -12.948200
					CHANNELS 3 Xrotation Yrotation Zrotation
					JOINT LeftToeBase
					{
						OFFSET 0.192200 -14.009700 16.364100
						CHANNELS 3 Xrotation Yrotation Zrotation
						JOINT LeftToe_End
						{
							OFFSET -1.784700 -0.561700 9.474800
							CHANNELS 3 Xrotation Yrotation Zrotation
							End Site
							{
								OFFSET 0 0 0
							}
						}
					}
				}
			}
		}
	}
	JOINT RightUpLeg_virtual
	{
		OFFSET 0.000000 0.000000 0.000000
		CHANNELS 3 Xrotation Yrotation Zrotation
		JOINT RightUpLeg
		{
			OFFSET -12.883000 -6.336304 -1.092800
			CHANNELS 3 Xrotation Yrotation Zrotation
			JOINT RightLeg
			{
				OFFSET -0.524587 -46.096825 9.782800
				CHANNELS 3 Xrotation Yrotation Zrotation
				JOINT RightFoot
				{
					OFFSET 0.524587 -53.427383 -12.948300
					CHANNELS 3 Xrotation Yrotation Zrotation
					JOINT RightToeBase
					{
						OFFSET -0.192200 -14.009700 16.364100
						CHANNELS 3 Xrotation Yrotation Zrotation
						JOINT RightToe_End
						{
							OFFSET 1.784700 -0.561700 9.474800
							CHANNELS 3 Xrotation Yrotation Zrotation
							End Site
							{
								OFFSET 0 0 0
							}
						}
					}
				}
			}
		}
	}
	JOINT Spine_virtual
	{
		OFFSET 0.000000 0.000000 0.000000
		CHANNELS 3 Xrotation Yrotation Zrotation
		JOINT Spine
		{
			OFFSET 0.072000 7.257294 -0.789700
			CHANNELS 3 Xrotation Yrotation Zrotation
			JOINT Spine1
			{
				OFFSET 0.000000 12.508769 -0.658067
				CHANNELS 3 Xrotation Yrotation Zrotation
				JOINT Spine1_split
				{
					OFFSET 0.000000 12.508769 -0.658067
					CHANNELS 3 Xrotation Yrotation Zrotation
					JOINT Spine2
					{
						OFFSET 0.000000 12.508769 -0.658067
						CHANNELS 3 Xrotation Yrotation Zrotation
						JOINT Neck_virtual
						{
							OFFSET 0.000000 0.000000 0.000000
							CHANNELS 3 Xrotation Yrotation Zrotation
							JOINT Neck
							{
								OFFSET 0.000000 14.033295 7.520400
								CHANNELS 3 Xrotation Yrotation Zrotation
								JOINT Head
								{
									OFFSET 0.000000 8.198502 5.703100
									CHANNELS 3 Xrotation Yrotation Zrotation
									JOINT HeadTop_End
									{
										OFFSET 0.000000 17.760803 13.332701
										CHANNELS 3 Xrotation Yrotation Zrotation
										End Site
										{
											OFFSET 0 0 0
										}
									}
								}
							}
						}
						JOINT LeftShoulder_virtual
						{
							OFFSET 0.000000 0.000000 0.000000
							CHANNELS 3 Xrotation Yrotation Zrotation
							JOINT LeftShoulder
							{
								OFFSET 6.292450 5.785301 -0.669000
								CHANNELS 3 Xrotation Yrotation Zrotation
								JOINT LeftShoulder_split
								{
									OFFSET 6.292450 5.785301 -0.669000
									CHANNELS 3 Xrotation Yrotation Zrotation
									JOINT LeftArm
									{
										OFFSET 13.907140 -6.093903 1.965100
										CHANNELS 3 Xrotation Yrotation Zrotation
										JOINT LeftForeArm
										{
											OFFSET 34.140198 0.000000 0.000000
											CHANNELS 3 Xrotation Yrotation Zrotation
											JOINT LeftHand
											{
												OFFSET 40.960209 0.000000 0.000000
												CHANNELS 3 Xrotation Yrotation Zrotation
												End Site
												{
													OFFSET 0 0 0
												}
											}
										}
									}
								}
							}
						}
						JOINT RightShoulder_virtual
						{
							OFFSET 0.000000 0.000000 0.000000
							CHANNELS 3 Xrotation Yrotation Zrotation
							JOINT RightShoulder
							{
								OFFSET -6.292450 5.785301 -0.669000
								CHANNELS 3 Xrotation Yrotation Zrotation
								JOINT RightShoulder_split
								{
									OFFSET -6.292450 5.785301 -0.669000
									CHANNELS 3 Xrotation Yrotation Zrotation
									JOINT RightArm
									{
										OFFSET -13.907140 -6.093903 1.965100
										CHANNELS 3 Xrotation Yrotation Zrotation
										JOINT RightForeArm
										{
											OFFSET -34.140198 0.000000 0.000000
											CHANNELS 3 Xrotation Yrotation Zrotation
											JOINT RightHand
											{
												OFFSET -40.960209 0.000000 0.000000
												CHANNELS 3 Xrotation Yrotation Zrotation
												End Site
												{
													OFFSET 0 0 0
												}
											}
										}
									}
								}
							}
						}
					}
				}
			}
		}
	}
}
MOTION
Frames: 8
Frame Time: 0.03333333
8.081699 112.442078 -12.261646 0.000000 0.000000 0.000000 3.672244 13.637168 1.453023 -14.422983 11.401718 9.725406 21.000586 1.286318 1.422462 -7.776772 3.770192 -15.852024 0.136610 -3.551224 0.030414 0.000000 0.000000 0.000000 4.093510 13.678104 1.459656 -16.630995 3.521713 -2.304938 24.304168 4.684326 -1.844159 -11.717838 -6.398758 11.176974 3.080585 2.565214 -5.646197 0.000000 0.000000 0.000000 3.288789 17.022940 0.999831 -0.925255 -2.690801 0.709139 -0.648777 0.033033 0.503507 0.154973 -0.053005 -0.043105 0.000000 0.000000 0.000000 -0.708820 3.045604 0.446707 3.878512 5.457008 1.173733 -14.526098 -38.234716 -12.592728 0.000000 0.000000 0.000000 -1.867913 1.157518 0.110502 -0.608946 -11.153870 -10.736010 -2.578683 0.513074 -2.623538 23.665846 -21.333008 -63.153828 -0.429480 -21.011566 -0.740576 0.000000 0.000000 0.000000 -0.982978 1.547488 0.627213 -1.551841 0.361575 14.495731 -5.198699 -0.127723 -0.526188 15.113967 29.562234 61.431958 -6.737834 14.036119 3.837537 0.000000 0.000000 0.000000 
8.262788 112.543083 -12.219822 0.000000 0.000000 0.000000 3.642396 13.678584 1.426301 -14.393603 10.886334 9.714571 20.788575 1.359628 1.440980 -7.874402 3.873541 -15.421368 0.263530 -3.556251 0.022463 0.000000 0.000000 0.000000 4.059916 13.323933 1.444603 -16.333496 3.506088 -2.227929 24.068677 4.613876 -1.906719 -11.382805 -6.379891 11.156726 2.219238 2.628792 -5.550001 0.000000 0.000000 0.000000 3.331451 16.885474 0.925458 -0.989967 -2.644463 0.761448 -0.667935 0.088035 0.496904 0.154093 -0.004870 -0.034977 0.000000 0.000000 0.000000 -0.668222 3.083736 0.444655 3.844943 5.460472 1.378067 -14.894020 -37.838603 -12.939522 0.000000 0.000000 0.000000 -1.813923 1.208072 0.128413 -0.607320 -11.134984 -10.864523 -2.610767 0.329557 -2.641128 23.647607 -21.359847 -63.150358 -0.473014 -20.904977 -0.793386 0.000000 0.000000 0.000000 -0.975464 1.595193 0.614507 -1.595851 0.516609 14.498453 -4.736898 0.093602 -0.478737 14.986051 29.608095 61.389050 -6.726410 13.975643 3.843913 0.000000 0.000000 0.000000 
8.416891 112.664230 -12.150539 0.000000 0.000000 0.000000 3.499435 13.563552 1.351262 -14.426403 10.528044 9.732170 20.632359 1.461105 1.466530 -7.932389 3.979361 -15.170815 0.513608 -3.570688 0.035772 0.000000 0.000000 0.000000 4.078873 12.918073 1.336010 -15.961529 3.315394 -2.137489 23.882071 4.510753 -1.977572 -11.378089 -6.053387 11.348472 1.815748 2.745940 -5.730617 0.000000 0.000000 0.000000 3.306642 16.631260 0.771821 -0.940352 -2.515264 0.835936 -0.646349 0.161463 0.487558 0.157259 -0.016289 -0.050576 0.000000 0.000000 0.000000 -0.572751 3.140522 0.432245 3.923335 5.466317 1.698853 -14.974683 -37.173537 -13.188441 0.000000 0.000000 0.000000 -1.737364 1.265371 0.122614 -0.625165 -11.068354 -10.973389 -2.610879 0.291743 -2.562717 23.254960 -21.312123 -63.361821 -0.502662 -20.819581 -0.756284 0.000000 0.000000 0.000000 -0.930527 1.652492 0.590885 -1.634819 0.590515 14.503236 -4.270744 0.214349 -0.384534 14.968868 29.652874 61.110133 -6.676467 13.922537 3.759142 0.000000 0.000000 0.000000 
8.536453 112.654732 -12.132908 0.000000 0.000000 0.000000 3.315817 13.248279 1.269450 -14.466016 10.383748 9.675112 20.749406 1.530613 1.519821 -7.903592 4.088310 -15.138126 0.443499 -3.603753 0.161076 0.000000 0.000000 0.000000 4.124346 12.497713 1.206432 -15.768969 2.929584 -2.128507 23.809247 4.353063 -2.021289 -11.712808 -5.589717 11.648010 2.172910 2.894012 -6.184995 0.000000 0.000000 0.000000 3.244486 16.319508 0.644434 -0.766427 -2.324810 0.881078 -0.562162 0.250115 0.478122 0.158353 -0.083913 -0.067955 0.000000 0.000000 0.000000 -0.422871 3.210813 0.413954 4.093151 5.466416 2.112693 -14.747936 -36.258100 -13.226603 0.000000 0.000000 0.000000 -1.658753 1.335454 0.097597 -0.660810 -10.958202 -11.045077 -2.625264 0.286481 -2.437461 22.585591 -21.269604 -63.643894 -0.548205 -20.806317 -0.663708 0.000000 0.000000 0.000000 -0.847137 1.710437 0.559969 -1.657896 0.606709 14.485626 -3.817804 0.307225 -0.269098 15.012143 29.747099 60.704119 -6.615200 13.886998 3.610353 0.000000 0.000000 0.000000 
8.647621 112.550980 -12.148624 0.000000 0.000000 0.000000 3.183653 12.776712 1.202611 -14.562083 10.362622 9.493973 21.236079 1.598806 1.613542 -7.883648 4.270656 -15.208705 -0.012827 -3.649953 0.386039 0.000000 0.000000 0.000000 4.195003 12.027579 1.091771 -15.857686 2.381629 -2.203410 23.763167 4.193748 -2.002938 -12.064135 -5.230342 12.135475 2.823555 3.032606 -6.828714 0.000000 0.000000 0.000000 3.222409 16.038633 0.570782 -0.476381 -2.117554 0.850967 -0.413588 0.344393 0.473058 0.129797 -0.182537 -0.065523 0.000000 0.000000 0.000000 -0.222123 3.291077 0.392572 4.241948 5.449389 2.577077 -14.260126 -35.141323 -12.964975 0.000000 0.000000 0.000000 -1.575255 1.423064 0.070366 -0.709598 -10.831441 -11.086466 -2.617778 0.219931 -2.423641 21.779820 -21.309396 -63.858512 -0.620504 -20.902908 -0.534632 0.000000 0.000000 0.000000 -0.734345 1.768868 0.532449 -1.680129 0.650277 14.421825 -3.376294 0.398289 -0.156979 15.044666 29.952159 60.292061 -6.581833 13.892633 3.432596 0.000000 0.000000 0.000000 
8.661347 112.431770 -12.189465 0.000000 0.000000 0.000000 3.187477 12.218092 1.135483 -14.775900 10.357605 9.211041 21.964408 1.814594 1.726340 -7.973279 4.612409 -15.152372 -0.440413 -3.701438 0.563117 0.000000 0.000000 0.000000 4.413536 11.637573 0.958812 -16.269881 1.829584 -2.255124 23.633696 4.008507 -1.921997 -12.088526 -5.162798 12.848134 3.417205 3.123877 -7.531401 0.000000 0.000000 0.000000 3.312639 15.790463 0.454076 -0.086056 -1.938520 0.758314 -0.210674 0.445822 0.472459 0.088125 -0.277350 -0.044501 0.000000 0.000000 0.000000 0.015598 3.379233 0.370991 4.288533 5.423693 3.042547 -13.575202 -33.928336 -12.377877 0.000000 0.000000 0.000000 -1.483544 1.522137 0.050874 -0.766605 -10.731183 -11.117195 -2.568341 0.078204 -2.486520 20.957052 -21.423392 -63.917866 -0.747391 -21.067693 -0.397004 0.000000 0.000000 0.000000 -0.594251 1.827603 0.511113 -1.723381 0.808597 14.309303 -2.942296 0.518601 -0.047404 15.022125 30.311191 59.964034 -6.599317 13.980154 3.273339 0.000000 0.000000 0.000000 
8.597030 112.413437 -12.444355 0.000000 0.000000 0.000000 3.408917 11.613363 0.933928 -15.205454 10.137131 9.020406 22.771729 2.154901 1.860813 -8.070416 5.121471 -15.132564 -0.485154 -3.747598 0.600740 0.000000 0.000000 0.000000 4.825836 11.374269 0.675761 -16.975481 1.429389 -2.143943 23.365276 3.736212 -1.792463 -11.507670 -5.435806 13.627293 3.705542 3.153805 -8.097106 0.000000 0.000000 0.000000 3.697378 15.606880 0.181655 0.348281 -1.817883 0.639963 0.021228 0.531677 0.480230 0.068362 -0.303868 -0.010975 0.000000 0.000000 0.000000 0.268087 3.460528 0.342969 4.185375 5.385313 3.501352 -12.686786 -32.711395 -11.450397 0.000000 0.000000 0.000000 -1.362578 1.611072 0.034747 -0.827307 -10.694291 -11.184628 -2.467861 -0.068542 -2.541712 20.080119 -21.582066 -63.802976 -0.932714 -21.214603 -0.263964 0.000000 0.000000 0.000000 -0.419604 1.886522 0.494125 -1.799780 1.107753 14.176974 -2.582395 0.580819 0.013689 14.984508 30.798426 59.710839 -6.672010 14.152483 3.162001 0.000000 0.000000 0.000000 
8.454741 112.547104 -13.001522 0.000000 0.000000 0.000000 3.918001 11.213356 0.472288 -15.892891 9.468018 9.064844 23.489990 2.521970 1.978828 -8.193840 5.701843 -15.307577 -0.203679 -3.790813 0.504836 0.000000 0.000000 0.000000 5.425842 11.116601 0.145510 -17.930614 1.290912 -1.734344 22.900410 3.399042 -1.667863 -10.475972 -5.998081 14.324732 3.749682 3.099660 -8.410350 0.000000 0.000000 0.000000 4.474758 15.298751 -0.342874 0.777298 -1.754800 0.547154 0.252971 0.575280 0.477224 0.081878 -0.252496 0.023115 0.000000 0.000000 0.000000 0.506077 3.516270 0.300516 3.919539 5.342019 3.960709 -11.595762 -31.541725 -10.214077 0.000000 0.000000 0.000000 -1.185414 1.664517 0.000108 -0.880946 -10.750711 -11.328687 -2.440294 -0.095895 -2.600137 19.078470 -21.594522 -63.552096 -1.211268 -21.325459 -0.159565 0.000000 0.000000 0.000000 -0.198049 1.947074 0.467427 -1.922122 1.554284 14.032954 -2.230648 0.561414 0.071553 14.970583 31.382766 59.424749 -6.787585 14.492726 3.128002 0.000000 0.000000 0.000000 
